<mxfile host="Electron" agent="Mozilla/5.0 (Windows NT 10.0; Win64; x64) AppleWebKit/537.36 (KHTML, like Gecko) draw.io/26.1.1 Chrome/132.0.6834.210 Electron/34.3.3 Safari/537.36" version="26.1.1">
  <diagram id="codeviz-diagram" name="System Diagram">
    <mxGraphModel dx="1502" dy="768" grid="1" gridSize="10" guides="1" tooltips="1" connect="1" arrows="1" fold="1" page="1" pageScale="1" pageWidth="1169" pageHeight="827" math="0" shadow="0">
      <root>
        <mxCell id="0" />
        <mxCell id="1" parent="0" />
        <mxCell id="subGraph11" value="" style="html=1;whiteSpace=wrap;container=1;fillColor=#dae8fc;strokeColor=#6c8ebf;dashed=1;fillOpacity=20;strokeWidth=2;containerType=none;recursiveResize=0;movable=1;resizable=1;autosize=0;dropTarget=0" parent="1" vertex="1">
          <mxGeometry x="863" y="2152" width="240" height="220" as="geometry" />
        </mxCell>
        <mxCell id="GeminiAPI" value="Gemini API&lt;br&gt;Google Cloud" style="rounded=1;whiteSpace=wrap;html=1;fillColor=#f5f5f5" parent="subGraph11" vertex="1">
          <mxGeometry x="40" y="120" width="120" height="60" as="geometry" />
        </mxCell>
        <mxCell id="subGraph11_label" value="External Services" style="edgeLabel;html=1;align=center;verticalAlign=middle;resizable=0;labelBackgroundColor=white;spacing=5" parent="1" vertex="1">
          <mxGeometry x="871" y="2160" width="164" height="24" as="geometry" />
        </mxCell>
        <mxCell id="subGraph10" value="" style="html=1;whiteSpace=wrap;container=1;fillColor=#d5e8d4;strokeColor=#82b366;dashed=1;fillOpacity=20;strokeWidth=2;containerType=none;recursiveResize=0;movable=1;resizable=1;autosize=0;dropTarget=0" parent="1" vertex="1">
          <mxGeometry x="59" y="210" width="1110" height="1870" as="geometry" />
        </mxCell>
        <mxCell id="subGraph9" value="" style="html=1;whiteSpace=wrap;container=1;fillColor=#dae8fc;strokeColor=#6c8ebf;dashed=1;fillOpacity=20;strokeWidth=2;containerType=none;recursiveResize=0;movable=1;resizable=1;autosize=0;dropTarget=0" parent="subGraph10" vertex="1">
          <mxGeometry x="162" y="1645" width="380" height="220" as="geometry" />
        </mxCell>
        <mxCell id="VectorStore" value="Vector Store&lt;br&gt;ChromaDB" style="rounded=1;whiteSpace=wrap;html=1;fillColor=#f5f5f5" parent="subGraph9" vertex="1">
          <mxGeometry x="180" y="120" width="120" height="60" as="geometry" />
        </mxCell>
        <mxCell id="KnowledgeGraphDB" value="Knowledge Graph Store&lt;br&gt;NetworkX/Pickle" style="rounded=1;whiteSpace=wrap;html=1;fillColor=#f5f5f5" parent="subGraph9" vertex="1">
          <mxGeometry x="40" y="120" width="120" height="60" as="geometry" />
        </mxCell>
        <mxCell id="subGraph9_label" value="Data Storage" style="edgeLabel;html=1;align=center;verticalAlign=middle;resizable=0;labelBackgroundColor=white;spacing=5" parent="subGraph10" vertex="1">
          <mxGeometry x="170" y="1653" width="304" height="24" as="geometry" />
        </mxCell>
        <mxCell id="subGraph8" value="" style="html=1;whiteSpace=wrap;container=1;fillColor=#dae8fc;strokeColor=#6c8ebf;dashed=1;fillOpacity=20;strokeWidth=2;containerType=none;recursiveResize=0;movable=1;resizable=1;autosize=0;dropTarget=0" parent="subGraph10" vertex="1">
          <mxGeometry x="71" y="570" width="1050" height="1030" as="geometry" />
        </mxCell>
        <mxCell id="subGraph7" value="" style="html=1;whiteSpace=wrap;container=1;fillColor=#dae8fc;strokeColor=#6c8ebf;dashed=1;fillOpacity=20;strokeWidth=2;containerType=none;recursiveResize=0;movable=1;resizable=1;autosize=0;dropTarget=0" parent="subGraph8" vertex="1">
          <mxGeometry x="313" y="430" width="380" height="220" as="geometry" />
        </mxCell>
        <mxCell id="TextUtils" value="Text Utils&lt;br&gt;Python" style="rounded=1;whiteSpace=wrap;html=1;fillColor=#f5f5f5" parent="subGraph7" vertex="1">
          <mxGeometry x="40" y="60" width="120" height="60" as="geometry" />
        </mxCell>
        <mxCell id="ConfigManager" value="Config Manager&lt;br&gt;Python dotenv" style="rounded=1;whiteSpace=wrap;html=1;fillColor=#f5f5f5" parent="subGraph7" vertex="1">
          <mxGeometry x="180" y="120" width="120" height="60" as="geometry" />
        </mxCell>
        <mxCell id="subGraph7_label" value="Utility Services" style="edgeLabel;html=1;align=center;verticalAlign=middle;resizable=0;labelBackgroundColor=white;spacing=5" parent="subGraph8" vertex="1">
          <mxGeometry x="321" y="438" width="304" height="24" as="geometry" />
        </mxCell>
        <mxCell id="subGraph6" value="" style="html=1;whiteSpace=wrap;container=1;fillColor=#dae8fc;strokeColor=#6c8ebf;dashed=1;fillOpacity=20;strokeWidth=2;containerType=none;recursiveResize=0;movable=1;resizable=1;autosize=0;dropTarget=0" parent="subGraph8" vertex="1">
          <mxGeometry x="293" y="92.5" width="380" height="320" as="geometry" />
        </mxCell>
        <mxCell id="BaseParser" value="Base Parser&lt;br&gt;Python ABC" style="rounded=1;whiteSpace=wrap;html=1;fillColor=#f5f5f5" parent="subGraph6" vertex="1">
          <mxGeometry x="60" y="120" width="120" height="60" as="geometry" />
        </mxCell>
        <mxCell id="JSONParser" value="JSON Parser&lt;br&gt;Python" style="rounded=1;whiteSpace=wrap;html=1;fillColor=#f5f5f5" parent="subGraph6" vertex="1">
          <mxGeometry x="40" y="220" width="120" height="60" as="geometry" />
        </mxCell>
        <mxCell id="MDParser" value="Markdown Parser&lt;br&gt;Python" style="rounded=1;whiteSpace=wrap;html=1;fillColor=#f5f5f5" parent="subGraph6" vertex="1">
          <mxGeometry x="180" y="220" width="120" height="60" as="geometry" />
        </mxCell>
        <mxCell id="subGraph6_label" value="Parser Service" style="edgeLabel;html=1;align=center;verticalAlign=middle;resizable=0;labelBackgroundColor=white;spacing=5" parent="subGraph8" vertex="1">
          <mxGeometry x="301" y="100.5" width="304" height="24" as="geometry" />
        </mxCell>
        <mxCell id="subGraph5" value="" style="html=1;whiteSpace=wrap;container=1;fillColor=#dae8fc;strokeColor=#6c8ebf;dashed=1;fillOpacity=20;strokeWidth=2;containerType=none;recursiveResize=0;movable=1;resizable=1;autosize=0;dropTarget=0" parent="subGraph8" vertex="1">
          <mxGeometry x="811" y="695" width="240" height="320" as="geometry" />
        </mxCell>
        <mxCell id="GeminiClient" value="LLM Client&lt;br&gt;Google Gemini" style="rounded=1;whiteSpace=wrap;html=1;fillColor=#f5f5f5" parent="subGraph5" vertex="1">
          <mxGeometry x="40" y="120" width="120" height="60" as="geometry" />
        </mxCell>
        <mxCell id="TextGenerator" value="Text Generator&lt;br&gt;Gemini API" style="rounded=1;whiteSpace=wrap;html=1;fillColor=#f5f5f5" parent="subGraph5" vertex="1">
          <mxGeometry x="40" y="220" width="120" height="60" as="geometry" />
        </mxCell>
        <mxCell id="subGraph5_label" value="LLM Service" style="edgeLabel;html=1;align=center;verticalAlign=middle;resizable=0;labelBackgroundColor=white;spacing=5" parent="subGraph8" vertex="1">
          <mxGeometry x="819" y="703" width="164" height="24" as="geometry" />
        </mxCell>
        <mxCell id="subGraph4" value="" style="html=1;whiteSpace=wrap;container=1;fillColor=#dae8fc;strokeColor=#6c8ebf;dashed=1;fillOpacity=20;strokeWidth=2;containerType=none;recursiveResize=0;movable=1;resizable=1;autosize=0;dropTarget=0" parent="subGraph8" vertex="1">
          <mxGeometry x="423" y="685" width="270" height="330" as="geometry" />
        </mxCell>
        <mxCell id="SemanticSearch" value="Semantic Search&lt;br&gt;ChromaDB" style="rounded=1;whiteSpace=wrap;html=1;fillColor=#f5f5f5" parent="subGraph4" vertex="1">
          <mxGeometry x="70" y="120" width="120" height="60" as="geometry" />
        </mxCell>
        <mxCell id="SearchModel" value="Search Model&lt;br&gt;Sentence Transformers" style="rounded=1;whiteSpace=wrap;html=1;fillColor=#f5f5f5" parent="subGraph4" vertex="1">
          <mxGeometry x="75" y="238" width="120" height="60" as="geometry" />
        </mxCell>
        <mxCell id="subGraph4_label" value="Search Service" style="edgeLabel;html=1;align=center;verticalAlign=middle;resizable=0;labelBackgroundColor=white;spacing=5" parent="subGraph8" vertex="1">
          <mxGeometry x="569" y="698" width="194" height="24" as="geometry" />
        </mxCell>
        <mxCell id="subGraph3" value="" style="html=1;whiteSpace=wrap;container=1;fillColor=#dae8fc;strokeColor=#6c8ebf;dashed=1;fillOpacity=20;strokeWidth=2;containerType=none;recursiveResize=0;movable=1;resizable=1;autosize=0;dropTarget=0" parent="subGraph8" vertex="1">
          <mxGeometry x="61" y="90" width="240" height="320" as="geometry" />
        </mxCell>
        <mxCell id="KGBuilder" value="Knowledge Graph Builder&lt;br&gt;NetworkX" style="rounded=1;whiteSpace=wrap;html=1;fillColor=#f5f5f5" parent="subGraph3" vertex="1">
          <mxGeometry x="51" y="120" width="120" height="60" as="geometry" />
        </mxCell>
        <mxCell id="EntityExtractor" value="Entity Extractor&lt;br&gt;spaCy" style="rounded=1;whiteSpace=wrap;html=1;fillColor=#f5f5f5" parent="subGraph3" vertex="1">
          <mxGeometry x="51" y="220" width="120" height="60" as="geometry" />
        </mxCell>
        <mxCell id="subGraph3_label" value="Knowledge Graph Service" style="edgeLabel;html=1;align=center;verticalAlign=middle;resizable=0;labelBackgroundColor=white;spacing=5" parent="subGraph8" vertex="1">
          <mxGeometry x="69" y="98" width="164" height="24" as="geometry" />
        </mxCell>
        <mxCell id="subGraph2" value="" style="html=1;whiteSpace=wrap;container=1;fillColor=#dae8fc;strokeColor=#6c8ebf;dashed=1;fillOpacity=20;strokeWidth=2;containerType=none;recursiveResize=0;movable=1;resizable=1;autosize=0;dropTarget=0" parent="subGraph8" vertex="1">
          <mxGeometry x="154" y="598" width="270" height="330" as="geometry" />
        </mxCell>
        <mxCell id="VectorIndexer" value="Vector Indexer&lt;br&gt;ChromaDB" style="rounded=1;whiteSpace=wrap;html=1;fillColor=#f5f5f5" parent="subGraph2" vertex="1">
          <mxGeometry x="70" y="120" width="120" height="60" as="geometry" />
        </mxCell>
        <mxCell id="EmbeddingModel" value="Embedding Model&lt;br&gt;Sentence Transformers" style="rounded=1;whiteSpace=wrap;html=1;fillColor=#f5f5f5" parent="subGraph2" vertex="1">
          <mxGeometry x="40" y="230" width="120" height="60" as="geometry" />
        </mxCell>
        <mxCell id="subGraph2_label" value="Indexing Service" style="edgeLabel;html=1;align=center;verticalAlign=middle;resizable=0;labelBackgroundColor=white;spacing=5" parent="subGraph8" vertex="1">
          <mxGeometry x="180" y="698" width="194" height="24" as="geometry" />
        </mxCell>
        <mxCell id="subGraph8_label" value="Core Services" style="edgeLabel;html=1;align=center;verticalAlign=middle;resizable=0;labelBackgroundColor=white;spacing=5" parent="subGraph10" vertex="1">
          <mxGeometry x="79" y="578" width="974" height="24" as="geometry" />
        </mxCell>
        <mxCell id="subGraph1" value="" style="html=1;whiteSpace=wrap;container=1;fillColor=#f8cecc;strokeColor=#b85450;dashed=1;fillOpacity=20;strokeWidth=2;containerType=none;recursiveResize=0;movable=1;resizable=1;autosize=0;dropTarget=0" parent="subGraph10" vertex="1">
          <mxGeometry x="330" y="60" width="470" height="480" as="geometry">
            <mxRectangle x="330" y="60" width="50" height="40" as="alternateBounds" />
          </mxGeometry>
        </mxCell>
        <mxCell id="subGraph0" value="" style="html=1;whiteSpace=wrap;container=1;fillColor=#fff2cc;strokeColor=#d6b656;dashed=1;fillOpacity=20;strokeWidth=2;containerType=none;recursiveResize=0;movable=1;resizable=1;autosize=0;dropTarget=0" parent="subGraph1" vertex="1">
          <mxGeometry x="50" y="205" width="380" height="220" as="geometry" />
        </mxCell>
        <mxCell id="Templates" value="Templates&lt;br&gt;Jinja2" style="rounded=1;whiteSpace=wrap;html=1;fillColor=#f5f5f5" parent="subGraph0" vertex="1">
          <mxGeometry x="40" y="120" width="120" height="60" as="geometry" />
        </mxCell>
        <mxCell id="StaticAssets" value="Static Assets&lt;br&gt;CSS" style="rounded=1;whiteSpace=wrap;html=1;fillColor=#f5f5f5" parent="subGraph0" vertex="1">
          <mxGeometry x="180" y="120" width="120" height="60" as="geometry" />
        </mxCell>
        <mxCell id="subGraph0_label" value="Web Components" style="edgeLabel;html=1;align=center;verticalAlign=middle;resizable=0;labelBackgroundColor=white;spacing=5" parent="subGraph1" vertex="1">
          <mxGeometry x="58" y="213" width="304" height="24" as="geometry" />
        </mxCell>
        <mxCell id="WebUI" value="Web Interface&lt;br&gt;Flask/HTML" style="rounded=1;whiteSpace=wrap;html=1;fillColor=#f5f5f5" parent="subGraph1" vertex="1">
          <mxGeometry x="116" y="120" width="120" height="60" as="geometry" />
        </mxCell>
        <mxCell id="subGraph1_label" value="Web Interface" style="edgeLabel;html=1;align=center;verticalAlign=middle;resizable=0;labelBackgroundColor=white;spacing=5" parent="subGraph10" vertex="1">
          <mxGeometry x="368" y="103" width="364" height="24" as="geometry" />
        </mxCell>
        <mxCell id="subGraph10_label" value="LLM Chat Indexer System" style="edgeLabel;html=1;align=center;verticalAlign=middle;resizable=0;labelBackgroundColor=white;spacing=5" parent="1" vertex="1">
          <mxGeometry y="210" width="1034" height="24" as="geometry" />
        </mxCell>
        <mxCell id="User" value="User" style="rounded=1;whiteSpace=wrap;html=1;fillColor=#f5f5f5" parent="1" vertex="1">
          <mxGeometry x="541" y="60" width="120" height="60" as="geometry" />
        </mxCell>
        <mxCell id="edge-L_User_WebUI_0" style="edgeStyle=orthogonalEdgeStyle;rounded=1;orthogonalLoop=1;jettySize=auto;html=1;strokeColor=#808080;strokeWidth=2;jumpStyle=arc;jumpSize=10;spacing=15;labelBackgroundColor=white;labelBorderColor=none" parent="1" source="User" target="WebUI" edge="1">
          <mxGeometry relative="1" as="geometry" />
        </mxCell>
        <mxCell id="edge-L_User_WebUI_0_label" value="Interacts with" style="edgeLabel;html=1;align=center;verticalAlign=middle;resizable=0;points=[];" parent="edge-L_User_WebUI_0" vertex="1" connectable="0">
          <mxGeometry x="-0.2" y="10" relative="1" as="geometry">
            <mxPoint as="offset" />
          </mxGeometry>
        </mxCell>
        <mxCell id="edge-L_WebUI_Templates_1" style="edgeStyle=orthogonalEdgeStyle;rounded=1;orthogonalLoop=1;jettySize=auto;html=1;strokeColor=#808080;strokeWidth=2;jumpStyle=arc;jumpSize=10;spacing=15;labelBackgroundColor=white;labelBorderColor=none" parent="1" source="WebUI" target="Templates" edge="1">
          <mxGeometry relative="1" as="geometry" />
        </mxCell>
        <mxCell id="edge-L_WebUI_Templates_1_label" value="Uses" style="edgeLabel;html=1;align=center;verticalAlign=middle;resizable=0;points=[];" parent="edge-L_WebUI_Templates_1" vertex="1" connectable="0">
          <mxGeometry x="-0.2" y="10" relative="1" as="geometry">
            <mxPoint as="offset" />
          </mxGeometry>
        </mxCell>
        <mxCell id="edge-L_WebUI_StaticAssets_2" style="edgeStyle=orthogonalEdgeStyle;rounded=1;orthogonalLoop=1;jettySize=auto;html=1;strokeColor=#808080;strokeWidth=2;jumpStyle=arc;jumpSize=10;spacing=15;labelBackgroundColor=white;labelBorderColor=none" parent="1" source="WebUI" target="StaticAssets" edge="1">
          <mxGeometry relative="1" as="geometry" />
        </mxCell>
        <mxCell id="edge-L_WebUI_StaticAssets_2_label" value="Serves" style="edgeLabel;html=1;align=center;verticalAlign=middle;resizable=0;points=[];" parent="edge-L_WebUI_StaticAssets_2" vertex="1" connectable="0">
          <mxGeometry x="-0.2" y="10" relative="1" as="geometry">
            <mxPoint as="offset" />
          </mxGeometry>
        </mxCell>
        <mxCell id="edge-L_WebUI_VectorIndexer_3" style="edgeStyle=orthogonalEdgeStyle;rounded=1;orthogonalLoop=1;jettySize=auto;html=1;strokeColor=#808080;strokeWidth=2;jumpStyle=arc;jumpSize=10;spacing=15;labelBackgroundColor=white;labelBorderColor=none" parent="1" source="WebUI" target="VectorIndexer" edge="1">
          <mxGeometry relative="1" as="geometry" />
        </mxCell>
        <mxCell id="edge-L_WebUI_VectorIndexer_3_label" value="Requests" style="edgeLabel;html=1;align=center;verticalAlign=middle;resizable=0;points=[];" parent="edge-L_WebUI_VectorIndexer_3" vertex="1" connectable="0">
          <mxGeometry x="-0.2" y="10" relative="1" as="geometry">
            <mxPoint as="offset" />
          </mxGeometry>
        </mxCell>
        <mxCell id="edge-L_WebUI_SemanticSearch_4" style="edgeStyle=orthogonalEdgeStyle;rounded=1;orthogonalLoop=1;jettySize=auto;html=1;strokeColor=#808080;strokeWidth=2;jumpStyle=arc;jumpSize=10;spacing=15;labelBackgroundColor=white;labelBorderColor=none" parent="1" source="WebUI" target="SemanticSearch" edge="1">
          <mxGeometry relative="1" as="geometry" />
        </mxCell>
        <mxCell id="edge-L_WebUI_SemanticSearch_4_label" value="Queries" style="edgeLabel;html=1;align=center;verticalAlign=middle;resizable=0;points=[];" parent="edge-L_WebUI_SemanticSearch_4" vertex="1" connectable="0">
          <mxGeometry x="-0.2" y="10" relative="1" as="geometry">
            <mxPoint as="offset" />
          </mxGeometry>
        </mxCell>
        <mxCell id="edge-L_VectorIndexer_EmbeddingModel_5" style="edgeStyle=orthogonalEdgeStyle;rounded=1;orthogonalLoop=1;jettySize=auto;html=1;strokeColor=#808080;strokeWidth=2;jumpStyle=arc;jumpSize=10;spacing=15;labelBackgroundColor=white;labelBorderColor=none" parent="1" source="VectorIndexer" target="EmbeddingModel" edge="1">
          <mxGeometry relative="1" as="geometry" />
        </mxCell>
        <mxCell id="edge-L_VectorIndexer_EmbeddingModel_5_label" value="Uses" style="edgeLabel;html=1;align=center;verticalAlign=middle;resizable=0;points=[];" parent="edge-L_VectorIndexer_EmbeddingModel_5" vertex="1" connectable="0">
          <mxGeometry x="-0.2" y="10" relative="1" as="geometry">
            <mxPoint as="offset" />
          </mxGeometry>
        </mxCell>
        <mxCell id="edge-L_VectorIndexer_VectorStore_6" style="edgeStyle=orthogonalEdgeStyle;rounded=1;orthogonalLoop=1;jettySize=auto;html=1;strokeColor=#808080;strokeWidth=2;jumpStyle=arc;jumpSize=10;spacing=15;labelBackgroundColor=white;labelBorderColor=none" parent="1" source="VectorIndexer" target="VectorStore" edge="1">
          <mxGeometry relative="1" as="geometry" />
        </mxCell>
        <mxCell id="edge-L_VectorIndexer_VectorStore_6_label" value="Stores in" style="edgeLabel;html=1;align=center;verticalAlign=middle;resizable=0;points=[];" parent="edge-L_VectorIndexer_VectorStore_6" vertex="1" connectable="0">
          <mxGeometry x="-0.2" y="10" relative="1" as="geometry">
            <mxPoint as="offset" />
          </mxGeometry>
        </mxCell>
        <mxCell id="edge-L_KGBuilder_EntityExtractor_7" style="edgeStyle=orthogonalEdgeStyle;rounded=1;orthogonalLoop=1;jettySize=auto;html=1;strokeColor=#808080;strokeWidth=2;jumpStyle=arc;jumpSize=10;spacing=15;labelBackgroundColor=white;labelBorderColor=none" parent="1" source="KGBuilder" target="EntityExtractor" edge="1">
          <mxGeometry relative="1" as="geometry" />
        </mxCell>
        <mxCell id="edge-L_KGBuilder_EntityExtractor_7_label" value="Uses" style="edgeLabel;html=1;align=center;verticalAlign=middle;resizable=0;points=[];" parent="edge-L_KGBuilder_EntityExtractor_7" vertex="1" connectable="0">
          <mxGeometry x="-0.2" y="10" relative="1" as="geometry">
            <mxPoint as="offset" />
          </mxGeometry>
        </mxCell>
        <mxCell id="edge-L_KGBuilder_KnowledgeGraphDB_8" style="edgeStyle=orthogonalEdgeStyle;rounded=1;orthogonalLoop=1;jettySize=auto;html=1;strokeColor=#808080;strokeWidth=2;jumpStyle=arc;jumpSize=10;spacing=15;labelBackgroundColor=white;labelBorderColor=none" parent="1" source="KGBuilder" target="KnowledgeGraphDB" edge="1">
          <mxGeometry relative="1" as="geometry" />
        </mxCell>
        <mxCell id="edge-L_KGBuilder_KnowledgeGraphDB_8_label" value="Stores in" style="edgeLabel;html=1;align=center;verticalAlign=middle;resizable=0;points=[];" parent="edge-L_KGBuilder_KnowledgeGraphDB_8" vertex="1" connectable="0">
          <mxGeometry x="-0.2" y="10" relative="1" as="geometry">
            <mxPoint as="offset" />
          </mxGeometry>
        </mxCell>
        <mxCell id="edge-L_SemanticSearch_SearchModel_9" style="edgeStyle=orthogonalEdgeStyle;rounded=1;orthogonalLoop=1;jettySize=auto;html=1;strokeColor=#808080;strokeWidth=2;jumpStyle=arc;jumpSize=10;spacing=15;labelBackgroundColor=white;labelBorderColor=none" parent="1" source="SemanticSearch" target="SearchModel" edge="1">
          <mxGeometry relative="1" as="geometry" />
        </mxCell>
        <mxCell id="edge-L_SemanticSearch_SearchModel_9_label" value="Uses" style="edgeLabel;html=1;align=center;verticalAlign=middle;resizable=0;points=[];" parent="edge-L_SemanticSearch_SearchModel_9" vertex="1" connectable="0">
          <mxGeometry x="-0.2" y="10" relative="1" as="geometry">
            <mxPoint as="offset" />
          </mxGeometry>
        </mxCell>
        <mxCell id="edge-L_SemanticSearch_VectorStore_10" style="edgeStyle=orthogonalEdgeStyle;rounded=1;orthogonalLoop=1;jettySize=auto;html=1;strokeColor=#808080;strokeWidth=2;jumpStyle=arc;jumpSize=10;spacing=15;labelBackgroundColor=white;labelBorderColor=none" parent="1" source="SemanticSearch" target="VectorStore" edge="1">
          <mxGeometry relative="1" as="geometry" />
        </mxCell>
        <mxCell id="edge-L_SemanticSearch_VectorStore_10_label" value="Queries" style="edgeLabel;html=1;align=center;verticalAlign=middle;resizable=0;points=[];" parent="edge-L_SemanticSearch_VectorStore_10" vertex="1" connectable="0">
          <mxGeometry x="-0.2" y="10" relative="1" as="geometry">
            <mxPoint as="offset" />
          </mxGeometry>
        </mxCell>
        <mxCell id="edge-L_GeminiClient_TextGenerator_11" style="edgeStyle=orthogonalEdgeStyle;rounded=1;orthogonalLoop=1;jettySize=auto;html=1;strokeColor=#808080;strokeWidth=2;jumpStyle=arc;jumpSize=10;spacing=15;labelBackgroundColor=white;labelBorderColor=none" parent="1" source="GeminiClient" target="TextGenerator" edge="1">
          <mxGeometry relative="1" as="geometry" />
        </mxCell>
        <mxCell id="edge-L_GeminiClient_TextGenerator_11_label" value="Uses" style="edgeLabel;html=1;align=center;verticalAlign=middle;resizable=0;points=[];" parent="edge-L_GeminiClient_TextGenerator_11" vertex="1" connectable="0">
          <mxGeometry x="-0.2" y="10" relative="1" as="geometry">
            <mxPoint as="offset" />
          </mxGeometry>
        </mxCell>
        <mxCell id="edge-L_TextGenerator_GeminiAPI_12" style="edgeStyle=orthogonalEdgeStyle;rounded=1;orthogonalLoop=1;jettySize=auto;html=1;strokeColor=#808080;strokeWidth=2;jumpStyle=arc;jumpSize=10;spacing=15;labelBackgroundColor=white;labelBorderColor=none" parent="1" source="TextGenerator" target="GeminiAPI" edge="1">
          <mxGeometry relative="1" as="geometry" />
        </mxCell>
        <mxCell id="edge-L_TextGenerator_GeminiAPI_12_label" value="Calls" style="edgeLabel;html=1;align=center;verticalAlign=middle;resizable=0;points=[];" parent="edge-L_TextGenerator_GeminiAPI_12" vertex="1" connectable="0">
          <mxGeometry x="-0.2" y="10" relative="1" as="geometry">
            <mxPoint as="offset" />
          </mxGeometry>
        </mxCell>
        <mxCell id="edge-L_BaseParser_JSONParser_13" style="edgeStyle=orthogonalEdgeStyle;rounded=1;orthogonalLoop=1;jettySize=auto;html=1;strokeColor=#808080;strokeWidth=2;jumpStyle=arc;jumpSize=10;spacing=15;labelBackgroundColor=white;labelBorderColor=none" parent="1" source="BaseParser" target="JSONParser" edge="1">
          <mxGeometry relative="1" as="geometry" />
        </mxCell>
        <mxCell id="edge-L_BaseParser_JSONParser_13_label" value="Extended by" style="edgeLabel;html=1;align=center;verticalAlign=middle;resizable=0;points=[];" parent="edge-L_BaseParser_JSONParser_13" vertex="1" connectable="0">
          <mxGeometry x="-0.2" y="10" relative="1" as="geometry">
            <mxPoint as="offset" />
          </mxGeometry>
        </mxCell>
        <mxCell id="edge-L_BaseParser_MDParser_14" style="edgeStyle=orthogonalEdgeStyle;rounded=1;orthogonalLoop=1;jettySize=auto;html=1;strokeColor=#808080;strokeWidth=2;jumpStyle=arc;jumpSize=10;spacing=15;labelBackgroundColor=white;labelBorderColor=none" parent="1" source="BaseParser" target="MDParser" edge="1">
          <mxGeometry relative="1" as="geometry" />
        </mxCell>
        <mxCell id="edge-L_BaseParser_MDParser_14_label" value="Extended by" style="edgeLabel;html=1;align=center;verticalAlign=middle;resizable=0;points=[];" parent="edge-L_BaseParser_MDParser_14" vertex="1" connectable="0">
          <mxGeometry x="-0.2" y="10" relative="1" as="geometry">
            <mxPoint as="offset" />
          </mxGeometry>
        </mxCell>
        <mxCell id="edge-L_VectorIndexer_TextUtils_15" style="edgeStyle=orthogonalEdgeStyle;rounded=1;orthogonalLoop=1;jettySize=auto;html=1;strokeColor=#808080;strokeWidth=2;jumpStyle=arc;jumpSize=10;spacing=15;labelBackgroundColor=white;labelBorderColor=none" parent="1" source="VectorIndexer" target="TextUtils" edge="1">
          <mxGeometry relative="1" as="geometry" />
        </mxCell>
        <mxCell id="edge-L_VectorIndexer_TextUtils_15_label" value="Uses" style="edgeLabel;html=1;align=center;verticalAlign=middle;resizable=0;points=[];" parent="edge-L_VectorIndexer_TextUtils_15" vertex="1" connectable="0">
          <mxGeometry x="-0.2" y="10" relative="1" as="geometry">
            <mxPoint as="offset" />
          </mxGeometry>
        </mxCell>
        <mxCell id="edge-L_KGBuilder_TextUtils_16" style="edgeStyle=orthogonalEdgeStyle;rounded=1;orthogonalLoop=1;jettySize=auto;html=1;strokeColor=#808080;strokeWidth=2;jumpStyle=arc;jumpSize=10;spacing=15;labelBackgroundColor=white;labelBorderColor=none" parent="1" source="KGBuilder" target="TextUtils" edge="1">
          <mxGeometry relative="1" as="geometry" />
        </mxCell>
        <mxCell id="edge-L_KGBuilder_TextUtils_16_label" value="Uses" style="edgeLabel;html=1;align=center;verticalAlign=middle;resizable=0;points=[];" parent="edge-L_KGBuilder_TextUtils_16" vertex="1" connectable="0">
          <mxGeometry x="-0.2" y="10" relative="1" as="geometry">
            <mxPoint as="offset" />
          </mxGeometry>
        </mxCell>
        <mxCell id="edge-L_SemanticSearch_TextUtils_17" style="edgeStyle=orthogonalEdgeStyle;rounded=1;orthogonalLoop=1;jettySize=auto;html=1;strokeColor=#808080;strokeWidth=2;jumpStyle=arc;jumpSize=10;spacing=15;labelBackgroundColor=white;labelBorderColor=none" parent="1" source="SemanticSearch" target="TextUtils" edge="1">
          <mxGeometry relative="1" as="geometry" />
        </mxCell>
        <mxCell id="edge-L_SemanticSearch_TextUtils_17_label" value="Uses" style="edgeLabel;html=1;align=center;verticalAlign=middle;resizable=0;points=[];" parent="edge-L_SemanticSearch_TextUtils_17" vertex="1" connectable="0">
          <mxGeometry x="-0.2" y="10" relative="1" as="geometry">
            <mxPoint as="offset" />
          </mxGeometry>
        </mxCell>
        <mxCell id="edge-L_ConfigManager_VectorIndexer_18" style="edgeStyle=orthogonalEdgeStyle;rounded=1;orthogonalLoop=1;jettySize=auto;html=1;strokeColor=#808080;strokeWidth=2;jumpStyle=arc;jumpSize=10;spacing=15;labelBackgroundColor=white;labelBorderColor=none" parent="1" source="ConfigManager" target="VectorIndexer" edge="1">
          <mxGeometry relative="1" as="geometry" />
        </mxCell>
        <mxCell id="edge-L_ConfigManager_VectorIndexer_18_label" value="Configures" style="edgeLabel;html=1;align=center;verticalAlign=middle;resizable=0;points=[];" parent="edge-L_ConfigManager_VectorIndexer_18" vertex="1" connectable="0">
          <mxGeometry x="-0.2" y="10" relative="1" as="geometry">
            <mxPoint as="offset" />
          </mxGeometry>
        </mxCell>
        <mxCell id="edge-L_ConfigManager_GeminiClient_19" style="edgeStyle=orthogonalEdgeStyle;rounded=1;orthogonalLoop=1;jettySize=auto;html=1;strokeColor=#808080;strokeWidth=2;jumpStyle=arc;jumpSize=10;spacing=15;labelBackgroundColor=white;labelBorderColor=none" parent="1" source="ConfigManager" target="GeminiClient" edge="1">
          <mxGeometry relative="1" as="geometry" />
        </mxCell>
        <mxCell id="edge-L_ConfigManager_GeminiClient_19_label" value="Configures" style="edgeLabel;html=1;align=center;verticalAlign=middle;resizable=0;points=[];" parent="edge-L_ConfigManager_GeminiClient_19" vertex="1" connectable="0">
          <mxGeometry x="-0.2" y="10" relative="1" as="geometry">
            <mxPoint as="offset" />
          </mxGeometry>
        </mxCell>
        <mxCell id="edge-L_ConfigManager_SemanticSearch_20" style="edgeStyle=orthogonalEdgeStyle;rounded=1;orthogonalLoop=1;jettySize=auto;html=1;strokeColor=#808080;strokeWidth=2;jumpStyle=arc;jumpSize=10;spacing=15;labelBackgroundColor=white;labelBorderColor=none" parent="1" source="ConfigManager" target="SemanticSearch" edge="1">
          <mxGeometry relative="1" as="geometry" />
        </mxCell>
        <mxCell id="edge-L_ConfigManager_SemanticSearch_20_label" value="Configures" style="edgeLabel;html=1;align=center;verticalAlign=middle;resizable=0;points=[];" parent="edge-L_ConfigManager_SemanticSearch_20" vertex="1" connectable="0">
          <mxGeometry x="-0.2" y="10" relative="1" as="geometry">
            <mxPoint as="offset" />
          </mxGeometry>
        </mxCell>
      </root>
    </mxGraphModel>
  </diagram>
</mxfile>
